<svg width="22" height="21" viewBox="0 0 22 21" fill="none" xmlns="http://www.w3.org/2000/svg">
<path d="M1.69995 20.22L1.74995 8.18996C1.74995 7.57996 2.03995 7.00001 2.51995 6.62001L9.51995 1.17C10.24 0.61 11.25 0.61 11.98 1.17L18.98 6.61C19.47 6.99 19.75 7.56996 19.75 8.18996V20.22" fill="#276231" fill-opacity="0.1"/>
<path d="M14.25 9.21997H7.25C6.42 9.21997 5.75 9.88997 5.75 10.72V20.22H15.75V10.72C15.75 9.88997 15.08 9.21997 14.25 9.21997Z" fill="#276231" fill-opacity="0.1"/>
<path d="M0.75 20.22H20.75M1.69995 20.22L1.74995 8.18996C1.74995 7.57996 2.03995 7.00001 2.51995 6.62001L9.51995 1.17C10.24 0.61 11.25 0.61 11.98 1.17L18.98 6.61C19.47 6.99 19.75 7.56996 19.75 8.18996V20.22M8.75 14.47V15.97M9.25 5.71997H12.25M14.25 9.21997H7.25C6.42 9.21997 5.75 9.88997 5.75 10.72V20.22H15.75V10.72C15.75 9.88997 15.08 9.21997 14.25 9.21997Z" stroke="#276231" stroke-width="1.5" stroke-miterlimit="10" stroke-linecap="round" stroke-linejoin="round"/>
</svg>
