<svg width="22" height="22" viewBox="0 0 22 22" fill="none" xmlns="http://www.w3.org/2000/svg">
<path d="M7.75 20.75H13.75C18.75 20.75 20.75 18.75 20.75 13.75V7.75C20.75 2.75 18.75 0.75 13.75 0.75H7.75C2.75 0.75 0.75 2.75 0.75 7.75V13.75C0.75 18.75 2.75 20.75 7.75 20.75Z" fill="#276231" fill-opacity="0.1"/>
<path d="M15.87 4.60001L15.41 5.14001C12.86 8.12001 9.44 10.23 5.63 11.18" fill="#276231" fill-opacity="0.1"/>
<path d="M12.9399 4.60001H15.8699V7.52001" fill="#276231" fill-opacity="0.1"/>
<path d="M5.63 16.9V14.83M10.75 16.9V12.76M15.87 16.9V10.68M15.87 4.60001L15.41 5.14001C12.86 8.12001 9.44 10.23 5.63 11.18M12.9399 4.60001H15.8699V7.52001M7.75 20.75H13.75C18.75 20.75 20.75 18.75 20.75 13.75V7.75C20.75 2.75 18.75 0.75 13.75 0.75H7.75C2.75 0.75 0.75 2.75 0.75 7.75V13.75C0.75 18.75 2.75 20.75 7.75 20.75Z" stroke="#276231" stroke-width="1.5" stroke-linecap="round" stroke-linejoin="round"/>
</svg>
