<svg width="24" height="24" viewBox="0 0 24 24" fill="none" xmlns="http://www.w3.org/2000/svg">
<path d="M12 22C17.5228 22 22 17.5228 22 12C22 6.47715 17.5228 2 12 2C6.47715 2 2 6.47715 2 12C2 17.5228 6.47715 22 12 22Z" fill="#476C80" fill-opacity="0.1" stroke="#476C80" stroke-width="1.5" stroke-linecap="round" stroke-linejoin="round"/>
<path d="M18.7398 19.3801C18.6398 18.4401 18.0398 17.5201 16.9698 16.8001C14.2498 14.9801 9.76977 14.9801 7.02977 16.8001C5.95977 17.5201 5.35977 18.4401 5.25977 19.3801M12.1202 12.78C12.0502 12.77 11.9602 12.77 11.8802 12.78C10.1202 12.72 8.72021 11.28 8.72021 9.50998C8.72021 7.69998 10.1802 6.22998 12.0002 6.22998C13.8102 6.22998 15.2802 7.69998 15.2802 9.50998C15.2702 11.28 13.8802 12.72 12.1202 12.78Z" stroke="#476C80" stroke-width="1.5" stroke-linecap="round" stroke-linejoin="round"/>
</svg>
