<svg width="24" height="24" viewBox="0 0 24 24" fill="none" xmlns="http://www.w3.org/2000/svg">
<path d="M12 3L5 10V20C5 20.5523 5.44772 21 6 21H9H15H18C18.5523 21 19 20.5523 19 20V10L12 3Z" fill="#476C80" fill-opacity="0.1"/>
<path d="M3 12L5 10M5 10L12 3L19 10M5 10V20C5 20.5523 5.44772 21 6 21H9H15H18C18.5523 21 19 20.5523 19 20V10M19 10L21 12" stroke="#476C80" stroke-width="1.5" stroke-linecap="round" stroke-linejoin="round"/>
<path d="M10 20V16C10 15.4477 10.4477 15 11 15H13C13.5523 15 14 15.4477 14 16V20" stroke="#476C80" stroke-width="1.5" stroke-linecap="round" stroke-linejoin="round"/>
</svg>
